Artist  : Iron Maiden
Album   : Iron Maiden
Year    : 1980 (1987 Toshiba EMI Japanese First Pressing)
Genre   : Heavy Metal (New Wave Of British Heavy Metal)
Country : United Kingdom
Codec   : FLAC (image+cue)

---------- LOG ----------
Exact Audio Copy V0.99 prebeta 5 from 4. May 2009

EAC extraction logfile from 21. February 2010, 13:40

Iron Maiden / Iron Maiden

Used drive  : Optiarc DVD RW AD-5170A   Adapter: 0  ID: 1

Read mode               : Secure
Utilize accurate stream : Yes
Defeat audio cache      : Yes
Make use of C2 pointers : No

Read offset correction                      : 48
Overread into Lead-In and Lead-Out          : No
Fill up missing offset samples with silence : Yes
Delete leading and trailing silent blocks   : No
Null samples used in CRC calculations       : Yes
Used interface                              : Native Win32 interface for Win NT & 2000

Used output format : Internal WAV Routines
Sample format      : 44.100 Hz; 16 Bit; Stereo


TOC of the extracted CD

     Track |   Start  |  Length  | Start sector | End sector 
    ---------------------------------------------------------
        1  |  0:00.00 |  3:54.57 |         0    |    17606   
        2  |  3:54.57 |  5:27.55 |     17607    |    42186   
        3  |  9:22.37 |  3:17.10 |     42187    |    56971   
        4  | 12:39.47 |  7:20.50 |     56972    |    90021   
        5  | 20:00.22 |  4:05.28 |     90022    |   108424   
        6  | 24:05.50 |  5:45.72 |    108425    |   134371   
        7  | 29:51.47 |  4:13.20 |    134372    |   153366   
        8  | 34:04.67 |  3:34.43 |    153367    |   169459   


Range status and errors

Selected range

     Filename M:Iron Maiden - 1995 ReissuesIron Maiden (CP32-5106)Iron Maiden - Iron Maiden.wav

     Peak level 100.0 %
     Range quality 100.0 %
     Test CRC A587DDB1
     Copy CRC A587DDB1
     Copy OK

No errors occurred

 
AccurateRip summary
 
Track  1  accurately ripped (confidence 3)  [7B6852E3]
Track  2  accurately ripped (confidence 3)  [F0534714]
Track  3  accurately ripped (confidence 3)  [14E94553]
Track  4  accurately ripped (confidence 3)  [238ADB85]
Track  5  accurately ripped (confidence 3)  [54D50FC3]
Track  6  accurately ripped (confidence 3)  [C0E9591E]
Track  7  accurately ripped (confidence 3)  [94FE9C40]
Track  8  accurately ripped (confidence 3)  [686404E9]
 
All tracks accurately ripped

End of status report
---------- EOL ----------